<svg width="526" height="52" fill="none" xmlns="http://www.w3.org/2000/svg"><path d="M78.921 50c-.39-7.02-.39-14.105-.39-24.44 0-10.66.13-17.94.26-24.31H48.436c-1.105 4.225-2.86 9.685-4.81 15.6-.585 2.275-1.365 5.2-2.145 8.19h-.13c-.78-2.925-1.56-5.915-2.145-8.19-2.015-6.175-3.64-11.245-4.81-15.6H1.051c.26 6.37.325 13.65.325 24.31 0 10.335-.065 17.42-.39 24.44h21.255a578.12 578.12 0 01-.39-16.315c-.065-3.315-.26-6.37-.455-9.555l.325-.13c1.04 3.445 2.21 6.89 3.12 9.23L31.926 50h13.195l6.76-16.055c.975-2.405 2.08-5.85 3.185-9.425l.39.065c-.195 3.315-.39 6.565-.39 9.425-.13 6.045-.325 10.465-.585 15.99h24.44zm38.396-20.02h-4.745c.78-4.16 1.625-8.32 2.535-12.22.78-2.99 1.495-6.11 2.015-8.645h.13c.52 2.535 1.235 5.72 2.08 8.58.975 3.9 1.885 8.125 2.6 12.285h-4.615zM154.627 50c-4.42-12.35-12.155-41.99-13.715-48.75H95.347c-1.3 6.63-8.84 36.4-13.065 48.75h27.495c.065-2.015.39-5.07.91-8.645h13c.455 3.575.715 6.63.78 8.645h30.16zm69.439-27.69c-6.175.13-12.285.13-16.965.13-4.615 0-10.855 0-17.03-.13.065 1.235.065 2.925.065 4.81 0 1.105 0 4.485-.065 5.655 2.665-.065 5.72-.13 8.71-.13-.715 3.64-2.73 5.07-6.825 5.07-6.37 0-8.385-3.51-8.385-12.415 0-9.295 1.95-12.545 7.54-12.545 4.485 0 6.435 1.365 6.435 4.745 0 .455 0 1.04-.065 1.56 3.51-.195 7.93-.26 12.545-.26 4.875 0 9.88.13 14.105.26.065-.91.065-1.755.065-2.6.065-10.855-7.345-16.38-32.89-16.38-24.115 0-35.23 5.59-35.23 24.96 0 19.565 11.375 26.13 35.035 26.13 29.38 0 34.32-7.67 32.955-28.86zm37.597 7.67h-4.745c.78-4.16 1.625-8.32 2.535-12.22.78-2.99 1.495-6.11 2.015-8.645h.13c.52 2.535 1.235 5.72 2.08 8.58.975 3.9 1.885 8.125 2.6 12.285h-4.615zM298.973 50c-4.42-12.35-12.155-41.99-13.715-48.75h-45.565c-1.3 6.63-8.84 36.4-13.065 48.75h27.495c.065-2.015.39-5.07.91-8.645h13c.455 3.575.715 6.63.78 8.645h30.16zm36.808-17.42c2.795-1.105 5.785-2.405 9.23-4.42 5.915-3.835 10.725-7.085 15.145-9.23-.195-2.47-.195-6.89-.195-9.815 0-2.535.065-5.07.13-7.865h-58.305c.13 2.99.13 6.24.13 8.645 0 2.34 0 6.11-.13 8.71 3.965-.065 7.93-.13 13.975-.13 3.9 0 7.54-.065 11.18-.325l.065.455c-2.08 1.04-4.225 2.145-6.24 3.315-7.15 4.29-14.17 8.84-18.98 11.05.13 1.755.13 5.33.13 8.58 0 2.535 0 5.395-.195 8.45h58.5c-.13-3.445-.195-6.11-.195-8.775 0-2.405.065-6.175.195-8.71-3.315.195-6.565.26-12.74.26-3.705 0-7.67 0-11.635.13l-.065-.325zM393.526 50c-.13-7.15-.195-14.17-.195-24.44 0-10.335 0-17.29.195-24.31h-27.365c.195 7.02.195 14.04.195 24.375s0 17.29-.195 24.375h27.365zm49.046-48.75c.26 3.25.39 9.1.52 14.885.065 2.405.195 5.46.455 8.775l-.26.13c-.91-2.6-2.08-5.005-3.185-7.345-3.25-5.2-9.36-13.845-10.335-16.445h-29.705c.26 6.76.195 14.04.195 24.375 0 10.4-.13 17.745-.195 24.375h22.88c-.195-1.95-.195-6.37-.26-12.74-.195-3.965-.325-7.475-.65-11.44h.13c1.17 2.99 2.6 5.98 4.225 9.035 3.64 5.07 8.45 11.245 10.465 15.145h28.275c-.195-6.24-.195-13.585-.195-24.44 0-10.335.065-19.5.325-24.31h-22.685zm29.023 0c.26 6.76.325 14.04.325 24.375 0 10.4-.065 17.485-.325 24.375h54.08c-.13-1.95-.13-4.81-.13-7.28 0-2.665 0-5.72.13-7.605-7.995.065-19.175.13-27.105.13v-5.07c8.775 0 19.24.13 26.39.325-.065-2.99 0-8.71.065-11.44-7.345.26-17.615.325-26.455.325v-4.94c7.735 0 18.135.065 27.105.13-.13-1.56-.195-4.355-.195-6.76 0-2.21.13-4.94.195-6.565h-54.08z" fill="#000"/></svg>