<svg width="291" height="51" fill="none" xmlns="http://www.w3.org/2000/svg"><path d="M7.829 47.01c-1.04 0-2.21 0-3.51-.13-.13-5.135-.065-13.585-.065-20.085 1.235 0 2.535-.065 3.575-.065 4.745 0 5.915 2.925 5.915 10.27 0 8.775-1.3 10.01-5.915 10.01zm5.525-33.02c0 7.475-1.365 9.945-5.59 10.01-.91 0-2.275 0-3.51-.065 0-7.02 0-15.015.065-19.695 1.43 0 2.6-.065 3.64-.065 4.095 0 5.395 1.365 5.395 9.815zm-2.535 11.245c1.17-.13 2.145-.39 2.925-.91 2.08-1.625 2.925-4.29 2.925-10.53 0-10.53-2.08-12.545-8.125-12.545h-7.8c.13 5.525.195 14.04.195 24.375C.939 36.025.874 44.02.744 50h7.67c6.5 0 8.645-2.275 8.645-12.74 0-6.76-.975-9.62-3.25-10.985-.78-.455-1.755-.585-2.99-.715v-.325zM33.129 1.25c-.325 3.055-2.404 14.56-3.574 22.295-.456 2.275-.846 5.2-1.17 7.215h-.326c-.26-2.08-.715-4.94-1.105-7.215-1.3-7.865-3.25-19.045-3.575-22.295h-3.965c1.43 5.33 5.85 27.625 7.02 34.06 0 6.825 0 12.415-.065 14.69.52-.065 1.105-.065 1.756-.065.584 0 1.235 0 1.755.065 0-2.275-.13-7.93-.13-14.755 1.235-6.24 5.525-26.78 7.02-33.995h-3.64zm29.327 20.54h1.625c.13-2.275.13-4.42.13-6.89 0-9.62-2.08-14.105-7.865-14.105-6.175 0-8.97 4.355-8.97 24.57-.065 20.28 2.925 25.09 8.97 25.09 5.85 0 8.06-5.2 8.06-15.405 0-2.275-.065-3.51-.13-5.525h-3.315c.065 2.145.13 3.77.13 6.045 0 8.255-1.3 11.765-4.745 11.765-3.575 0-5.59-3.445-5.59-22.035.065-18.525 2.08-21.385 5.46-21.385 3.055 0 4.68 2.145 4.68 10.985 0 1.43-.065 4.485-.13 6.89h1.69zM86.2 25.3C86.2 5.085 83.08.795 77.23.795c-5.85 0-8.97 4.29-8.97 24.505 0 20.15 2.925 25.22 8.97 25.22 6.045 0 8.97-5.07 8.97-25.22zm-8.97 22.035c-3.575 0-5.59-3.77-5.59-21.905 0-18.2 2.08-21.515 5.59-21.515 3.575 0 5.46 3.38 5.46 21.515s-1.885 21.905-5.46 21.905zM94.393 50c-.13-5.46-.13-14.04-.13-24.375 0-10.53 0-19.11.13-24.375h-3.575c.13 5.33.13 13.975.13 24.375s0 18.98-.13 24.375h3.576zm19.083-48.75c.195 5.395.26 20.215.325 30.485 0 3.835.26 7.67.455 12.155h-.195c-.585-3.705-1.235-7.605-1.95-10.855-2.795-12.805-6.825-27.625-7.605-31.785h-4.42c.065 5.2.065 14.04.065 24.375 0 10.4 0 18.33-.065 24.375h3.12c-.13-4.29-.13-14.82-.13-27.105 0-7.475-.13-12.87-.39-18.005h.13c.585 4.225 1.3 8.515 2.21 12.74 3.055 11.895 6.89 27.17 7.93 32.37h3.64c-.065-6.175-.065-13.585-.065-24.44 0-10.335.065-19.305.065-24.31h-3.12zm6.552 0c.065.39.065.975.065 1.495 0 .52 0 1.105-.065 1.625 2.21-.065 4.29-.065 6.045-.065 0 16.185 0 41.795-.13 45.695h3.575c-.065-3.965-.13-29.51-.13-45.695 1.82 0 3.9 0 5.98.065-.065-.455-.065-1.04-.065-1.56 0-.585 0-1.17.065-1.56h-15.34zm18.714 0c.195 4.095.13 14.04.13 24.375 0 10.4 0 19.11-.195 24.375h14.04v-3.25c-3.705.13-7.41.13-10.465.13-.065-4.875-.065-10.01-.065-20.02 3.705 0 7.02 0 10.205.065v-3.12c-3.185.065-6.435.065-10.205.065 0-5.785.13-13.455.13-19.565 2.99 0 6.63.065 10.4.195V1.25h-13.975zm18.727 0c.26 4.355.195 12.805.195 24.375 0 10.4 0 21.97-.13 24.375h11.44c0-.52-.065-1.105-.065-1.625 0-.585.065-1.17.065-1.625-2.73.13-5.59.13-7.865.13-.065-4.94-.13-14.17-.13-21.32 0-13.13 0-19.305.195-24.31h-3.705zm14.788 0c.195 4.095.13 14.04.13 24.375 0 10.4 0 19.11-.195 24.375h14.04v-3.25c-3.705.13-7.41.13-10.465.13-.065-4.875-.065-10.01-.065-20.02 3.705 0 7.02 0 10.205.065v-3.12c-3.185.065-6.435.065-10.205.065 0-5.785.13-13.455.13-19.565 2.99 0 6.63.065 10.4.195V1.25h-13.975zm29.973 23.725c-1.17 0-2.47 0-4.225-.065.065.52.065.975.065 1.625 0 .39 0 1.04-.065 1.365 1.82-.065 3.9-.065 5.59-.065.39 15.795-.585 19.63-4.615 19.63-3.835 0-5.72-4.225-5.785-22.23.065-18.135 2.145-21.32 5.785-21.32 3.12 0 4.55 2.275 4.55 10.27 0 1.235-.065 4.03-.13 6.045.52-.065 1.105-.065 1.755-.065.585 0 1.17.065 1.56.065.13-1.95.13-3.9.13-6.175 0-8.775-2.08-13.26-7.735-13.26-6.305 0-9.295 4.225-9.295 24.44 0 20.215 2.925 25.22 9.1 25.22 7.02 0 8.45-5.265 7.865-25.48h-4.55zm13.272 2.34c-.065-7.215 0-15.145 0-23.01 1.235 0 2.99-.065 3.705-.065 3.705 0 5.46 1.755 5.46 11.765 0 7.41-1.755 11.375-5.005 11.375-2.015 0-3.445-.065-4.16-.065zm6.695 1.755c4.225-1.105 5.72-5.525 5.72-13.52 0-11.375-2.73-14.3-8.06-14.3h-7.735c0 7.02.13 14.04.13 24.375 0 10.4-.13 17.355-.13 24.375h3.64c-.13-4.42-.26-11.44-.26-19.63 1.69 0 2.405-.065 4.095-.065 3.185 0 3.835 1.69 5.915 18.135.26 1.17.325 1.56 1.04 1.56h3.185c-.65-2.145-1.235-6.435-1.95-10.725-1.235-7.605-2.275-9.49-5.59-10.14v-.065zm18.597-25.35c.26 2.08.65 5.005 1.365 10.14.65 5.785 1.69 13.13 2.6 19.825h-3.965c-1.105 0-2.73 0-4.16-.065.91-6.565 1.82-13.845 2.535-19.63.715-5.2 1.17-8.19 1.43-10.27h.195zM250.609 50c-1.95-11.44-6.565-44.655-7.28-48.75h-5.2c-.585 4.095-5.395 37.765-7.15 48.75h3.705c.195-2.405.78-7.475 1.56-13.455h8.905c.78 6.175 1.43 11.31 1.56 13.455h3.9zm9.459-18.33c-1.3 0-2.34-.065-2.925-.13V4.435c1.105 0 2.73-.065 3.51-.065 3.38 0 5.33 2.21 5.33 14.105 0 11.245-1.885 13.195-5.915 13.195zm-6.37-30.42c.195 6.24.195 14.04.195 24.375 0 10.4 0 17.485-.195 24.375h3.705c-.13-4.03-.195-9.295-.26-15.34 1.495.065 2.145.065 3.51.065 5.46 0 8.58-2.99 8.58-16.25 0-13.845-2.535-17.225-8.45-17.225h-7.085zm32.998 0c.13 5.07.13 17.29.13 22.75-1.56.065-3.25.065-4.94.065-1.69 0-3.38 0-4.94-.065 0-5.46 0-17.68.13-22.75h-3.575c.195 5.785.13 14.04.13 24.375 0 10.4.065 17.355-.13 24.375h3.575c-.13-6.24-.13-17.55-.13-22.815 1.495-.065 3.25 0 4.94 0 1.69 0 3.445-.065 4.94 0 0 5.265 0 16.575-.13 22.815h3.64c-.195-7.02-.13-13.975-.13-24.375 0-10.335-.065-18.59.13-24.375h-3.64z" fill="#000"/></svg>