<svg width="291" height="51" viewBox="0 0 291 51" fill="none" xmlns="http://www.w3.org/2000/svg">
<path d="M7.82873 47.01C6.78873 47.01 5.61873 47.01 4.31873 46.88C4.18873 41.745 4.25373 33.295 4.25373 26.795C5.48873 26.795 6.78873 26.73 7.82873 26.73C12.5737 26.73 13.7437 29.655 13.7437 37C13.7437 45.775 12.4437 47.01 7.82873 47.01ZM13.3537 13.99C13.3537 21.465 11.9887 23.935 7.76373 24C6.85373 24 5.48873 24 4.25373 23.935C4.25373 16.915 4.25373 8.92 4.31873 4.24C5.74873 4.24 6.91873 4.175 7.95873 4.175C12.0537 4.175 13.3537 5.54 13.3537 13.99ZM10.8187 25.235C11.9887 25.105 12.9637 24.845 13.7437 24.325C15.8237 22.7 16.6687 20.035 16.6687 13.795C16.6687 3.265 14.5887 1.25 8.54373 1.25H0.743731C0.873731 6.775 0.938731 15.29 0.938731 25.625C0.938731 36.025 0.873731 44.02 0.743731 50H8.41373C14.9137 50 17.0587 47.725 17.0587 37.26C17.0587 30.5 16.0837 27.64 13.8087 26.275C13.0287 25.82 12.0537 25.69 10.8187 25.56V25.235ZM33.1295 1.25C32.8045 4.305 30.7245 15.81 29.5545 23.545C29.0995 25.82 28.7095 28.745 28.3845 30.76H28.0595C27.7995 28.68 27.3445 25.82 26.9545 23.545C25.6545 15.68 23.7045 4.5 23.3795 1.25H19.4145C20.8445 6.58 25.2645 28.875 26.4345 35.31C26.4345 42.135 26.4345 47.725 26.3695 50C26.8895 49.935 27.4745 49.935 28.1245 49.935C28.7095 49.935 29.3595 49.935 29.8795 50C29.8795 47.725 29.7495 42.07 29.7495 35.245C30.9845 29.005 35.2745 8.465 36.7695 1.25H33.1295ZM62.4562 21.79H64.0812C64.2112 19.515 64.2112 17.37 64.2112 14.9C64.2112 5.28 62.1312 0.794998 56.3462 0.794998C50.1712 0.794998 47.3762 5.15 47.3762 25.365C47.3112 45.645 50.3012 50.455 56.3462 50.455C62.1962 50.455 64.4062 45.255 64.4062 35.05C64.4062 32.775 64.3412 31.54 64.2762 29.525H62.6512H60.9612C61.0262 31.67 61.0912 33.295 61.0912 35.57C61.0912 43.825 59.7912 47.335 56.3462 47.335C52.7712 47.335 50.7562 43.89 50.7562 25.3C50.8212 6.775 52.8362 3.915 56.2162 3.915C59.2712 3.915 60.8962 6.06 60.8962 14.9C60.8962 16.33 60.8312 19.385 60.7662 21.79H62.4562ZM86.1999 25.3C86.1999 5.085 83.0799 0.794998 77.2299 0.794998C71.3799 0.794998 68.2599 5.085 68.2599 25.3C68.2599 45.45 71.1849 50.52 77.2299 50.52C83.2749 50.52 86.1999 45.45 86.1999 25.3ZM77.2299 47.335C73.6549 47.335 71.6399 43.565 71.6399 25.43C71.6399 7.23 73.7199 3.915 77.2299 3.915C80.8049 3.915 82.6899 7.295 82.6899 25.43C82.6899 43.565 80.8049 47.335 77.2299 47.335ZM94.3935 50C94.2635 44.54 94.2635 35.96 94.2635 25.625C94.2635 15.095 94.2635 6.515 94.3935 1.25H90.8185C90.9485 6.58 90.9485 15.225 90.9485 25.625C90.9485 36.025 90.9485 44.605 90.8185 50H94.3935ZM113.476 1.25C113.671 6.645 113.736 21.465 113.801 31.735C113.801 35.57 114.061 39.405 114.256 43.89H114.061C113.476 40.185 112.826 36.285 112.111 33.035C109.316 20.23 105.286 5.41 104.506 1.25H100.086C100.151 6.45 100.151 15.29 100.151 25.625C100.151 36.025 100.151 43.955 100.086 50H103.206C103.076 45.71 103.076 35.18 103.076 22.895C103.076 15.42 102.946 10.025 102.686 4.89H102.816C103.401 9.115 104.116 13.405 105.026 17.63C108.081 29.525 111.916 44.8 112.956 50H116.596C116.531 43.825 116.531 36.415 116.531 25.56C116.531 15.225 116.596 6.255 116.596 1.25H113.476ZM120.028 1.25C120.093 1.64 120.093 2.225 120.093 2.745C120.093 3.265 120.093 3.85 120.028 4.37C122.238 4.305 124.318 4.305 126.073 4.305C126.073 20.49 126.073 46.1 125.943 50H127.698H129.518C129.453 46.035 129.388 20.49 129.388 4.305C131.208 4.305 133.288 4.305 135.368 4.37C135.303 3.915 135.303 3.33 135.303 2.81C135.303 2.225 135.303 1.64 135.368 1.25H120.028ZM138.742 1.25C138.937 5.345 138.872 15.29 138.872 25.625C138.872 36.025 138.872 44.735 138.677 50H152.717V48.375V46.75C149.012 46.88 145.307 46.88 142.252 46.88C142.187 42.005 142.187 36.87 142.187 26.86C145.892 26.86 149.207 26.86 152.392 26.925V23.805C149.207 23.87 145.957 23.87 142.187 23.87C142.187 18.085 142.317 10.415 142.317 4.305C145.307 4.305 148.947 4.37 152.717 4.5V2.745V1.25H138.742ZM157.469 1.25C157.729 5.605 157.664 14.055 157.664 25.625C157.664 36.025 157.664 47.595 157.534 50H168.974C168.974 49.48 168.909 48.895 168.909 48.375C168.909 47.79 168.974 47.205 168.974 46.75C166.244 46.88 163.384 46.88 161.109 46.88C161.044 41.94 160.979 32.71 160.979 25.56C160.979 12.43 160.979 6.255 161.174 1.25H157.469ZM172.257 1.25C172.452 5.345 172.387 15.29 172.387 25.625C172.387 36.025 172.387 44.735 172.192 50H186.232V48.375V46.75C182.527 46.88 178.822 46.88 175.767 46.88C175.702 42.005 175.702 36.87 175.702 26.86C179.407 26.86 182.722 26.86 185.907 26.925V23.805C182.722 23.87 179.472 23.87 175.702 23.87C175.702 18.085 175.832 10.415 175.832 4.305C178.822 4.305 182.462 4.37 186.232 4.5V2.745V1.25H172.257ZM202.23 24.975C201.06 24.975 199.76 24.975 198.005 24.91C198.07 25.43 198.07 25.885 198.07 26.535C198.07 26.925 198.07 27.575 198.005 27.9C199.825 27.835 201.905 27.835 203.595 27.835C203.985 43.63 203.01 47.465 198.98 47.465C195.145 47.465 193.26 43.24 193.195 25.235C193.26 7.1 195.34 3.915 198.98 3.915C202.1 3.915 203.53 6.19 203.53 14.185C203.53 15.42 203.465 18.215 203.4 20.23C203.92 20.165 204.505 20.165 205.155 20.165C205.74 20.165 206.325 20.23 206.715 20.23C206.845 18.28 206.845 16.33 206.845 14.055C206.845 5.28 204.765 0.794998 199.11 0.794998C192.805 0.794998 189.815 5.02 189.815 25.235C189.815 45.45 192.74 50.455 198.915 50.455C205.935 50.455 207.365 45.19 206.78 24.975H202.23ZM215.502 27.315C215.437 20.1 215.502 12.17 215.502 4.305C216.737 4.305 218.492 4.24 219.207 4.24C222.912 4.24 224.667 5.995 224.667 16.005C224.667 23.415 222.912 27.38 219.662 27.38C217.647 27.38 216.217 27.315 215.502 27.315ZM222.197 29.07C226.422 27.965 227.917 23.545 227.917 15.55C227.917 4.175 225.187 1.25 219.857 1.25H212.122C212.122 8.27 212.252 15.29 212.252 25.625C212.252 36.025 212.122 42.98 212.122 50H215.762C215.632 45.58 215.502 38.56 215.502 30.37C217.192 30.37 217.907 30.305 219.597 30.305C222.782 30.305 223.432 31.995 225.512 48.44C225.772 49.61 225.837 50 226.552 50H229.737C229.087 47.855 228.502 43.565 227.787 39.275C226.552 31.67 225.512 29.785 222.197 29.135V29.07ZM240.794 3.72C241.054 5.8 241.444 8.725 242.159 13.86C242.809 19.645 243.849 26.99 244.759 33.685C243.394 33.685 241.899 33.685 240.794 33.685C239.689 33.685 238.064 33.685 236.634 33.62C237.544 27.055 238.454 19.775 239.169 13.99C239.884 8.79 240.339 5.8 240.599 3.72H240.794ZM250.609 50C248.659 38.56 244.044 5.345 243.329 1.25H238.129C237.544 5.345 232.734 39.015 230.979 50H234.684C234.879 47.595 235.464 42.525 236.244 36.545C237.804 36.545 239.559 36.545 240.794 36.545C242.029 36.545 243.589 36.545 245.149 36.545C245.929 42.72 246.579 47.855 246.709 50H250.609ZM260.068 31.67C258.768 31.67 257.728 31.605 257.143 31.54C257.143 23.35 257.143 13.99 257.143 4.435C258.248 4.435 259.873 4.37 260.653 4.37C264.033 4.37 265.983 6.58 265.983 18.475C265.983 29.72 264.098 31.67 260.068 31.67ZM253.698 1.25C253.893 7.49 253.893 15.29 253.893 25.625C253.893 36.025 253.893 43.11 253.698 50H257.403C257.273 45.97 257.208 40.705 257.143 34.66C258.638 34.725 259.288 34.725 260.653 34.725C266.113 34.725 269.233 31.735 269.233 18.475C269.233 4.63 266.698 1.25 260.783 1.25H253.698ZM286.696 1.25C286.826 6.32 286.826 18.54 286.826 24C285.266 24.065 283.576 24.065 281.886 24.065C280.196 24.065 278.506 24.065 276.946 24C276.946 18.54 276.946 6.32 277.076 1.25H273.501C273.696 7.035 273.631 15.29 273.631 25.625C273.631 36.025 273.696 42.98 273.501 50H277.076C276.946 43.76 276.946 32.45 276.946 27.185C278.441 27.12 280.196 27.185 281.886 27.185C283.576 27.185 285.331 27.12 286.826 27.185C286.826 32.45 286.826 43.76 286.696 50H290.336C290.141 42.98 290.206 36.025 290.206 25.625C290.206 15.29 290.141 7.035 290.336 1.25H286.696Z" fill="black"/>
</svg>
