<svg width="526" height="52" viewBox="0 0 526 52" fill="none" xmlns="http://www.w3.org/2000/svg">
<path d="M78.921 50C78.531 42.98 78.531 35.895 78.531 25.56C78.531 14.9 78.661 7.62 78.791 1.25H48.436C47.331 5.475 45.576 10.935 43.626 16.85C43.041 19.125 42.261 22.05 41.481 25.04H41.351C40.571 22.115 39.791 19.125 39.206 16.85C37.191 10.675 35.566 5.605 34.396 1.25H1.05102C1.31102 7.62 1.37602 14.9 1.37602 25.56C1.37602 35.895 1.31102 42.98 0.986016 50H22.241C22.046 44.735 21.916 39.925 21.851 33.685C21.786 30.37 21.591 27.315 21.396 24.13L21.721 24C22.761 27.445 23.931 30.89 24.841 33.23L31.926 50H45.121L51.881 33.945C52.856 31.54 53.961 28.095 55.066 24.52L55.456 24.585C55.261 27.9 55.066 31.15 55.066 34.01C54.936 40.055 54.741 44.475 54.481 50H78.921ZM117.317 29.98H112.572C113.352 25.82 114.197 21.66 115.107 17.76C115.887 14.77 116.602 11.65 117.122 9.115H117.252C117.772 11.65 118.487 14.835 119.332 17.695C120.307 21.595 121.217 25.82 121.932 29.98H117.317ZM154.627 50C150.207 37.65 142.472 8.01 140.912 1.25H95.3472C94.0472 7.88 86.5072 37.65 82.2822 50H109.777C109.842 47.985 110.167 44.93 110.687 41.355H117.317H123.687C124.142 44.93 124.402 47.985 124.467 50H154.627ZM224.066 22.31C217.891 22.44 211.781 22.44 207.101 22.44C202.486 22.44 196.246 22.44 190.071 22.31C190.136 23.545 190.136 25.235 190.136 27.12C190.136 28.225 190.136 31.605 190.071 32.775C192.736 32.71 195.791 32.645 198.781 32.645C198.066 36.285 196.051 37.715 191.956 37.715C185.586 37.715 183.571 34.205 183.571 25.3C183.571 16.005 185.521 12.755 191.111 12.755C195.596 12.755 197.546 14.12 197.546 17.5C197.546 17.955 197.546 18.54 197.481 19.06C200.991 18.865 205.411 18.8 210.026 18.8C214.901 18.8 219.906 18.93 224.131 19.06C224.196 18.15 224.196 17.305 224.196 16.46C224.261 5.605 216.851 0.0799996 191.306 0.0799996C167.191 0.0799996 156.076 5.67 156.076 25.04C156.076 44.605 167.451 51.17 191.111 51.17C220.491 51.17 225.431 43.5 224.066 22.31ZM261.663 29.98H256.918C257.698 25.82 258.543 21.66 259.453 17.76C260.233 14.77 260.948 11.65 261.468 9.115H261.598C262.118 11.65 262.833 14.835 263.678 17.695C264.653 21.595 265.563 25.82 266.278 29.98H261.663ZM298.973 50C294.553 37.65 286.818 8.01 285.258 1.25H239.693C238.393 7.88 230.853 37.65 226.628 50H254.123C254.188 47.985 254.513 44.93 255.033 41.355H261.663H268.033C268.488 44.93 268.748 47.985 268.813 50H298.973ZM335.781 32.58C338.576 31.475 341.566 30.175 345.011 28.16C350.926 24.325 355.736 21.075 360.156 18.93C359.961 16.46 359.961 12.04 359.961 9.115C359.961 6.58 360.026 4.045 360.091 1.25H301.786C301.916 4.24 301.916 7.49 301.916 9.895C301.916 12.235 301.916 16.005 301.786 18.605C305.751 18.54 309.716 18.475 315.761 18.475C319.661 18.475 323.301 18.41 326.941 18.15L327.006 18.605C324.926 19.645 322.781 20.75 320.766 21.92C313.616 26.21 306.596 30.76 301.786 32.97C301.916 34.725 301.916 38.3 301.916 41.55C301.916 44.085 301.916 46.945 301.721 50H360.221C360.091 46.555 360.026 43.89 360.026 41.225C360.026 38.82 360.091 35.05 360.221 32.515C356.906 32.71 353.656 32.775 347.481 32.775C343.776 32.775 339.811 32.775 335.846 32.905L335.781 32.58ZM393.526 50C393.396 42.85 393.331 35.83 393.331 25.56C393.331 15.225 393.331 8.27 393.526 1.25H366.161C366.356 8.27 366.356 15.29 366.356 25.625C366.356 35.96 366.356 42.915 366.161 50H393.526ZM442.572 1.25C442.832 4.5 442.962 10.35 443.092 16.135C443.157 18.54 443.287 21.595 443.547 24.91L443.287 25.04C442.377 22.44 441.207 20.035 440.102 17.695C436.852 12.495 430.742 3.85 429.767 1.25H400.062C400.322 8.01 400.257 15.29 400.257 25.625C400.257 36.025 400.127 43.37 400.062 50H422.942C422.747 48.05 422.747 43.63 422.682 37.26C422.487 33.295 422.357 29.785 422.032 25.82H422.162C423.332 28.81 424.762 31.8 426.387 34.855C430.027 39.925 434.837 46.1 436.852 50H465.127C464.932 43.76 464.932 36.415 464.932 25.56C464.932 15.225 464.997 6.06 465.257 1.25H442.572ZM471.595 1.25C471.855 8.01 471.92 15.29 471.92 25.625C471.92 36.025 471.855 43.11 471.595 50H525.675C525.545 48.05 525.545 45.19 525.545 42.72C525.545 40.055 525.545 37 525.675 35.115C517.68 35.18 506.5 35.245 498.57 35.245V30.175C507.345 30.175 517.81 30.305 524.96 30.5C524.895 27.51 524.96 21.79 525.025 19.06C517.68 19.32 507.41 19.385 498.57 19.385V14.445C506.305 14.445 516.705 14.51 525.675 14.575C525.545 13.015 525.48 10.22 525.48 7.815C525.48 5.605 525.61 2.875 525.675 1.25H471.595Z" fill="black"/>
</svg>
